<svg width="116" height="115" viewBox="0 0 116 115" fill="none" xmlns="http://www.w3.org/2000/svg">
<g id="person_black_24dp (1) 1">
<g clip-path="url(#clip0_240_1444)">
<rect x="0.5" width="115" height="115" rx="57.5" fill="#CDD4D8"/>
<path id="Vector" d="M58.5 58C66.5112 58 73 51.5112 73 43.5C73 35.4887 66.5112 29 58.5 29C50.4888 29 44 35.4887 44 43.5C44 51.5112 50.4888 58 58.5 58ZM58.5 65.25C48.8212 65.25 29.5 70.1075 29.5 79.75V83.375C29.5 85.3688 31.1312 87 33.125 87H83.875C85.8688 87 87.5 85.3688 87.5 83.375V79.75C87.5 70.1075 68.1787 65.25 58.5 65.25Z" fill="white"/>
</g>
</g>
<defs>
<clipPath id="clip0_240_1444">
<rect x="0.5" width="115" height="115" rx="57.5" fill="white"/>
</clipPath>
</defs>
</svg>
